<mxfile host="65bd71144e">
    <diagram id="iwP0CMKt3OZjgAK0C966" name="Page-1">
        <mxGraphModel dx="1446" dy="1418" grid="1" gridSize="10" guides="1" tooltips="1" connect="1" arrows="1" fold="1" page="1" pageScale="1" pageWidth="850" pageHeight="1100" math="0" shadow="0">
            <root>
                <mxCell id="0"/>
                <mxCell id="1" parent="0"/>
                <mxCell id="2" value="&lt;b&gt;EngineSandBox&amp;nbsp;&lt;/b&gt;" style="rounded=0;whiteSpace=wrap;html=1;fillColor=#d5e8d4;strokeColor=#82b366;verticalAlign=top;align=left;" parent="1" vertex="1">
                    <mxGeometry x="700" y="200" width="200" height="60" as="geometry"/>
                </mxCell>
                <mxCell id="16" style="edgeStyle=none;html=1;" edge="1" parent="1" source="3" target="17">
                    <mxGeometry relative="1" as="geometry"/>
                </mxCell>
                <mxCell id="3" value="Main Process" style="rounded=0;whiteSpace=wrap;html=1;fontStyle=1;fillColor=#f8cecc;strokeColor=#b85450;" vertex="1" parent="1">
                    <mxGeometry x="410" y="40" width="190" height="100" as="geometry"/>
                </mxCell>
                <mxCell id="11" style="edgeStyle=none;html=1;entryX=0;entryY=0.5;entryDx=0;entryDy=0;" edge="1" parent="1" source="4" target="12">
                    <mxGeometry relative="1" as="geometry">
                        <mxPoint x="230" y="20" as="targetPoint"/>
                    </mxGeometry>
                </mxCell>
                <mxCell id="4" value="&lt;b&gt;Index/Search (Window)&lt;/b&gt;&lt;br&gt;&lt;br&gt;- User Mode: to search automation script and execute in EngineSandbox" style="rounded=0;whiteSpace=wrap;html=1;fillColor=#d5e8d4;strokeColor=#82b366;align=left;" vertex="1" parent="1">
                    <mxGeometry x="-180" y="160" width="220" height="60" as="geometry"/>
                </mxCell>
                <mxCell id="5" value="" style="rounded=0;whiteSpace=wrap;html=1;fillColor=#f8cecc;strokeColor=#b85450;" vertex="1" parent="1">
                    <mxGeometry x="620" y="-20" width="30" height="20" as="geometry"/>
                </mxCell>
                <mxCell id="6" value="" style="rounded=0;whiteSpace=wrap;html=1;fillColor=#d5e8d4;strokeColor=#82b366;" vertex="1" parent="1">
                    <mxGeometry x="620" y="10" width="30" height="20" as="geometry"/>
                </mxCell>
                <mxCell id="7" value="Main" style="text;html=1;strokeColor=none;fillColor=none;align=center;verticalAlign=middle;whiteSpace=wrap;rounded=0;" vertex="1" parent="1">
                    <mxGeometry x="670" y="-25" width="60" height="30" as="geometry"/>
                </mxCell>
                <mxCell id="8" value="Renderer" style="text;html=1;strokeColor=none;fillColor=none;align=center;verticalAlign=middle;whiteSpace=wrap;rounded=0;" vertex="1" parent="1">
                    <mxGeometry x="680" y="10" width="60" height="30" as="geometry"/>
                </mxCell>
                <mxCell id="10" style="edgeStyle=none;html=1;entryX=0;entryY=0.5;entryDx=0;entryDy=0;" edge="1" parent="1" source="9" target="12">
                    <mxGeometry relative="1" as="geometry"/>
                </mxCell>
                <mxCell id="9" value="&lt;b&gt;Editor (Window)&lt;/b&gt;&lt;br&gt;&lt;br&gt;Edit and test script" style="rounded=0;whiteSpace=wrap;html=1;fillColor=#d5e8d4;strokeColor=#82b366;align=left;verticalAlign=top;" vertex="1" parent="1">
                    <mxGeometry x="-170" y="-30" width="220" height="60" as="geometry"/>
                </mxCell>
                <mxCell id="14" style="edgeStyle=none;html=1;" edge="1" parent="1" source="12" target="13">
                    <mxGeometry relative="1" as="geometry"/>
                </mxCell>
                <mxCell id="12" value="&lt;b&gt;Engine&lt;/b&gt;" style="rounded=0;whiteSpace=wrap;html=1;fillColor=#d5e8d4;strokeColor=#82b366;align=left;verticalAlign=top;" vertex="1" parent="1">
                    <mxGeometry x="240" y="-10" width="120" height="50" as="geometry"/>
                </mxCell>
                <mxCell id="15" style="edgeStyle=none;html=1;exitX=1;exitY=0.5;exitDx=0;exitDy=0;" edge="1" parent="1" source="13" target="17">
                    <mxGeometry relative="1" as="geometry"/>
                </mxCell>
                <mxCell id="13" value="&lt;b&gt;AutoWeb&lt;br&gt;(&lt;/b&gt;&lt;i&gt;Send IPC Render Message)&lt;/i&gt;&lt;br&gt;&lt;br&gt;Web layer automation engine to drive the EngineSandbox&amp;nbsp;&lt;br&gt;&lt;br&gt;&lt;br&gt;auto-web-action:&lt;br&gt;&lt;ul&gt;&lt;li&gt;LoadURL&lt;/li&gt;&lt;li&gt;TypeText&lt;/li&gt;&lt;li&gt;Input&lt;/li&gt;&lt;li&gt;Copy&lt;/li&gt;&lt;li&gt;Select&lt;/li&gt;&lt;/ul&gt;&lt;div&gt;&lt;br&gt;&lt;/div&gt;&lt;div&gt;&lt;br&gt;&lt;/div&gt;" style="rounded=0;whiteSpace=wrap;html=1;fillColor=#d5e8d4;strokeColor=#82b366;align=left;verticalAlign=top;" vertex="1" parent="1">
                    <mxGeometry x="110" y="130" width="200" height="310" as="geometry"/>
                </mxCell>
                <mxCell id="18" style="edgeStyle=none;html=1;" edge="1" parent="1" source="17" target="2">
                    <mxGeometry relative="1" as="geometry"/>
                </mxCell>
                <mxCell id="17" value="&lt;b&gt;AutoWebProxy&lt;/b&gt;&lt;br&gt;&lt;i&gt;(Receive IPC Renderer Message)&lt;/i&gt;&lt;br&gt;&lt;br&gt;Web layer automation engine to drive the EngineSandbox&amp;nbsp;&lt;br&gt;&lt;br&gt;&lt;br&gt;auto-web-action:&lt;br&gt;&lt;ul&gt;&lt;li&gt;LoadURL&lt;/li&gt;&lt;li&gt;SendInputEvent&lt;/li&gt;&lt;li&gt;ExecuteJavascript&lt;/li&gt;&lt;/ul&gt;&lt;div&gt;&lt;br&gt;&lt;/div&gt;&lt;div&gt;DocumentReady&lt;/div&gt;" style="rounded=0;whiteSpace=wrap;html=1;fillColor=#f8cecc;strokeColor=#b85450;align=left;verticalAlign=top;" vertex="1" parent="1">
                    <mxGeometry x="410" y="200" width="200" height="310" as="geometry"/>
                </mxCell>
            </root>
        </mxGraphModel>
    </diagram>
</mxfile>